<?xml version="1.0" standalone="no"?>
<!DOCTYPE svg PUBLIC "-//W3C//DTD SVG 20010904//EN"
 "http://www.w3.org/TR/2001/REC-SVG-20010904/DTD/svg10.dtd">
<svg version="1.0" xmlns="http://www.w3.org/2000/svg"
 width="1280.000000pt" height="720.000000pt" viewBox="0 0 1280.000000 720.000000"
 preserveAspectRatio="xMidYMid meet">

<g transform="translate(0.000000,720.000000) scale(0.100000,-0.100000)"
fill="#000000" stroke="none">
<path d="M4822 4759 c-172 -132 -463 -219 -731 -219 -110 0 -136 -16 -147 -88
-9 -57 12 -512 31 -707 49 -480 141 -686 382 -857 28 -20 120 -76 205 -124 84
-49 186 -110 227 -136 94 -61 125 -63 207 -10 32 21 82 51 109 67 28 16 64 37
80 47 17 10 53 30 80 44 162 86 317 210 385 309 136 198 197 547 214 1234 4
172 4 174 -19 197 -22 22 -32 24 -122 24 -259 1 -527 79 -720 211 l-41 29 -26
-30 c-13 -17 -28 -30 -31 -30 -4 0 5 14 19 31 31 36 26 49 -17 49 -22 0 -49
-13 -85 -41z m125 -165 c54 -37 197 -107 268 -132 117 -41 330 -81 433 -82
l52 0 0 -122 c0 -123 -21 -443 -39 -593 -33 -275 -101 -457 -211 -565 -53 -52
-124 -99 -310 -207 -85 -49 -174 -101 -196 -116 l-41 -26 -156 92 c-85 51
-190 112 -233 137 -140 81 -256 215 -296 345 -57 182 -90 426 -103 755 -3 80
-8 180 -11 223 l-6 77 59 0 c125 1 344 43 473 92 80 31 193 88 240 122 19 14
36 25 37 26 1 0 19 -12 40 -26z m-934 -141 c-7 -2 -19 -2 -25 0 -7 3 -2 5 12
5 14 0 19 -2 13 -5z"/>
<path d="M7785 4262 c-73 -24 -115 -76 -115 -142 0 -82 41 -120 195 -180 78
-30 95 -46 95 -86 0 -43 -30 -64 -91 -64 -36 0 -55 6 -78 26 -17 14 -31 34
-31 45 0 16 -8 19 -56 19 l-56 0 6 -32 c19 -100 149 -166 275 -140 93 20 143
70 143 144 0 90 -45 135 -182 184 -88 31 -110 48 -110 84 0 42 33 65 93 64 39
0 54 -5 69 -23 10 -13 18 -32 18 -42 0 -16 8 -19 55 -19 54 0 55 1 55 29 0 77
-91 142 -200 140 -36 -1 -74 -4 -85 -7z"/>
<path d="M6150 4215 l0 -45 85 0 85 0 0 -225 0 -225 50 0 50 0 0 225 0 225 85
0 85 0 0 45 0 45 -220 0 -220 0 0 -45z"/>
<path d="M6670 3980 l0 -280 55 0 55 0 0 105 0 105 45 0 45 0 52 -105 53 -105
57 0 c32 0 58 3 58 6 0 3 -25 54 -57 114 l-56 109 41 40 c44 43 60 99 48 166
-18 92 -90 125 -273 125 l-123 0 0 -280z m263 180 c50 -40 43 -116 -13 -145
-31 -16 -140 -18 -140 -2 0 4 0 43 0 87 l0 80 64 0 c48 0 69 -5 89 -20z"/>
<path d="M7160 4052 c0 -199 1 -211 23 -253 41 -77 138 -113 243 -90 65 15
110 50 135 106 16 34 19 68 19 243 l0 202 -60 0 -60 0 0 -207 c-1 -148 -4
-213 -13 -224 -28 -37 -96 -51 -138 -29 -43 23 -49 58 -49 265 l0 195 -50 0
-50 0 0 -208z"/>
<path d="M8120 4215 l0 -45 85 0 85 0 0 -225 0 -225 55 0 55 0 0 225 0 225 80
0 80 0 0 45 0 45 -220 0 -220 0 0 -45z"/>
<path d="M6239 3511 c7 -5 11 -13 7 -19 -3 -6 -1 -23 5 -39 7 -15 11 -37 10
-48 -2 -17 0 -18 9 -5 10 12 11 11 7 -8 -5 -21 27 -175 41 -197 3 -5 7 -17 7
-25 2 -50 18 -90 36 -90 14 0 19 7 19 26 0 14 -4 23 -10 19 -6 -4 -7 -12 -4
-18 4 -7 3 -8 -2 -4 -5 5 -9 12 -10 15 -3 39 -68 316 -89 383 -4 11 -14 19
-23 19 -14 0 -14 -2 -3 -9z m90 -301 c0 -9 -4 -8 -9 5 -5 11 -9 27 -9 35 0 9
4 8 9 -5 5 -11 9 -27 9 -35z"/>
<path d="M6471 3503 c0 -11 3 -13 6 -5 2 6 9 10 14 6 5 -3 9 0 9 5 0 6 -7 11
-15 11 -8 0 -15 -8 -14 -17z"/>
<path d="M6710 3511 c0 -5 7 -11 15 -15 9 -3 15 0 15 9 0 8 -7 15 -15 15 -8 0
-15 -4 -15 -9z"/>
<path d="M6897 3449 c-15 -39 -24 -76 -20 -81 3 -6 1 -8 -4 -5 -9 6 -24 -24
-28 -58 -1 -5 -8 -23 -15 -40 -7 -16 -21 -49 -32 -73 -10 -24 -16 -52 -13 -62
3 -10 0 -22 -6 -26 -8 -5 -9 -3 -4 6 5 9 4 11 -3 6 -17 -10 -15 -36 3 -36 15
0 38 67 28 83 -3 6 -1 7 5 3 11 -6 18 19 13 47 0 4 4 7 10 7 5 0 8 4 4 9 -3 5
-1 12 5 16 6 4 8 11 5 16 -4 5 -2 9 3 9 9 0 25 40 26 65 1 6 5 13 10 17 5 3 9
20 9 37 0 17 5 28 10 24 6 -3 7 -1 3 5 -4 7 -2 12 4 12 7 0 9 8 5 21 -5 14 -4
19 4 15 7 -5 9 -1 5 11 -5 16 -4 16 10 -1 9 -11 16 -24 16 -29 0 -4 5 -5 11
-1 8 4 9 0 4 -15 -3 -11 -2 -29 4 -38 8 -14 10 -15 11 -3 0 13 2 13 11 0 9
-12 10 -11 4 5 -22 64 -28 74 -35 70 -5 -3 -8 7 -7 22 1 17 -3 28 -13 30 -10
3 -23 -18 -43 -68z m53 45 c0 -8 -5 -12 -10 -9 -6 4 -8 11 -5 16 9 14 15 11
15 -7z"/>
<path d="M7180 3300 l0 -220 125 0 c106 0 125 2 125 15 0 12 -4 13 -19 5 -11
-5 -65 -10 -120 -10 l-101 0 2 188 2 187 6 -175 6 -175 2 203 c2 174 0 202
-13 202 -13 0 -15 -31 -15 -220z"/>
<path d="M7500 3300 l0 -220 123 1 c67 1 112 4 100 6 -13 2 -23 9 -23 14 0 5
-24 8 -52 7 l-53 -1 50 -7 c44 -6 40 -7 -37 -8 -80 -2 -114 7 -88 23 6 4 10
81 10 206 0 170 -2 199 -15 199 -13 0 -15 -31 -15 -220z m17 -88 c-1 -53 -3
-7 -3 103 0 110 2 154 3 97 2 -57 2 -147 0 -200z"/>
<path d="M7830 3300 l0 -220 130 0 c109 0 130 2 130 15 0 8 -7 15 -16 15 -8 0
-12 -4 -9 -10 4 -6 -25 -10 -79 -10 -51 0 -86 4 -86 10 0 6 -10 10 -22 10 -19
0 -20 -2 -8 -10 12 -8 11 -10 -8 -10 -23 0 -23 1 -21 120 1 74 5 118 11 114 5
-3 7 -12 4 -20 -4 -11 14 -14 99 -14 87 0 105 3 105 15 0 12 -15 15 -74 15
-50 0 -76 -4 -79 -12 -4 -10 -6 -10 -6 0 -1 6 -10 12 -21 12 -18 0 -20 7 -20
75 0 43 -4 75 -10 75 -14 0 -13 27 1 36 6 3 15 0 20 -7 6 -10 9 -11 9 -1 0 9
27 12 103 11 71 -1 91 -4 67 -9 l-35 -7 38 -2 c27 -1 37 3 37 14 0 13 -21 15
-130 15 l-130 0 0 -220z m17 68 c-2 -18 -4 -4 -4 32 0 36 2 50 4 33 2 -18 2
-48 0 -65z m136 -65 c-13 -2 -33 -2 -45 0 -13 2 -3 4 22 4 25 0 35 -2 23 -4z"/>
<path d="M8142 3504 c2 -8 6 -15 11 -15 4 1 24 2 45 3 l37 1 -45 7 -45 7 46 1
c25 1 50 -3 57 -10 9 -9 12 -9 12 0 0 13 68 14 76 0 3 -4 17 -7 32 -7 l27 1
-30 8 -30 8 32 1 c17 0 34 -5 36 -11 4 -10 6 -10 6 0 1 6 6 12 12 12 5 0 8 -4
5 -8 -2 -4 3 -8 13 -8 10 0 18 6 18 13 0 10 -36 13 -159 13 -139 0 -159 -2
-156 -16z"/>
<path d="M7918 3493 c17 -2 47 -2 65 0 17 2 3 4 -33 4 -36 0 -50 -2 -32 -4z"/>
<path d="M6497 3476 c-4 -9 -2 -16 3 -16 5 0 7 -6 5 -12 -3 -7 1 -33 8 -57 10
-33 15 -40 20 -27 9 23 -2 68 -15 60 -6 -4 -8 2 -3 15 3 11 2 28 -3 37 -8 15
-10 15 -15 0z"/>
<path d="M6701 3473 c0 -10 -7 -42 -15 -72 -9 -29 -13 -58 -10 -62 3 -5 0 -9
-6 -9 -6 0 -10 -8 -9 -17 1 -10 -3 -30 -9 -45 -6 -16 -9 -42 -5 -59 6 -29 7
-27 25 37 10 38 20 80 22 94 2 14 9 38 15 54 7 16 10 35 7 42 -2 6 0 16 6 22
11 11 3 32 -12 32 -5 0 -9 -8 -9 -17z m0 -70 c-12 -20 -14 -14 -5 12 4 9 9 14
11 11 3 -2 0 -13 -6 -23z"/>
<path d="M8292 3298 c-2 -170 0 -198 13 -198 13 0 15 27 13 193 l-3 192 -5
-190 -5 -190 -5 195 -6 195 -2 -197z"/>
<path d="M6466 3456 c5 -20 4 -27 -4 -22 -14 8 -27 -42 -23 -84 1 -12 4 -11
12 3 6 9 7 26 4 37 -4 11 -2 20 4 20 15 0 23 38 11 57 -8 15 -9 12 -4 -11z"/>
<path d="M6984 3357 c3 -10 6 -21 6 -23 0 -3 5 -2 11 2 7 4 9 0 5 -13 -4 -13
1 -26 14 -38 15 -14 20 -15 19 -4 -1 21 -37 96 -38 79 -1 -13 -3 -13 -12 0 -9
12 -10 12 -5 -3z"/>
<path d="M6538 3349 c-7 -18 1 -69 12 -69 4 0 7 -14 8 -32 0 -17 6 -34 12 -38
7 -4 11 -10 11 -14 -4 -28 1 -55 14 -72 14 -18 15 -17 6 7 -5 15 -7 30 -4 33
3 3 -4 38 -16 78 -13 40 -26 84 -30 97 -5 19 -9 21 -13 10z"/>
<path d="M6426 3320 c4 -23 3 -31 -4 -22 -7 10 -13 0 -22 -35 -8 -26 -15 -55
-16 -63 -1 -8 -5 -22 -9 -31 -3 -10 -2 -20 4 -23 12 -8 32 59 24 81 -4 11 -3
14 6 9 9 -6 10 0 5 20 -5 19 -3 25 4 20 16 -10 26 38 13 61 -8 14 -10 11 -5
-17z"/>
<path d="M7853 3200 c0 -47 2 -66 4 -42 2 23 2 61 0 85 -2 23 -4 4 -4 -43z"/>
<path d="M7018 3248 c-3 -7 -31 -10 -86 -9 -54 2 -82 -1 -82 -9 0 -7 30 -10
93 -8 70 2 91 6 89 16 -1 8 2 11 8 7 5 -3 8 -18 5 -33 -5 -25 -5 -25 4 -4 6
12 8 29 5 37 -7 18 -31 20 -36 3z"/>
<path d="M7058 3192 c-4 -13 -2 -20 3 -16 6 3 7 -5 3 -20 -4 -17 -2 -26 6 -26
6 0 8 5 4 12 -4 7 -3 8 5 4 8 -6 9 -12 2 -20 -8 -9 -7 -13 4 -13 17 0 19 10 6
35 -5 9 -13 28 -18 42 -10 24 -10 24 -15 2z"/>
<path d="M6629 3180 c-1 -14 -2 -38 -3 -55 -1 -18 -6 -29 -13 -27 -7 1 -13 -2
-13 -8 0 -5 6 -10 14 -10 18 0 29 33 21 61 -5 15 -4 19 4 15 13 -8 13 1 1 29
-8 19 -9 18 -11 -5z"/>
<path d="M7208 3103 c7 -3 16 -2 19 1 4 3 -2 6 -13 5 -11 0 -14 -3 -6 -6z"/>
<path d="M7298 3103 c12 -2 32 -2 45 0 12 2 2 4 -23 4 -25 0 -35 -2 -22 -4z"/>
<path d="M7718 3103 c7 -3 16 -2 19 1 4 3 -2 6 -13 5 -11 0 -14 -3 -6 -6z"/>
<path d="M7947 3103 c18 -2 50 -2 70 0 21 2 7 4 -32 4 -38 0 -55 -2 -38 -4z"/>
<path d="M7080 3088 c0 -4 7 -8 15 -8 8 0 15 4 15 8 0 5 -7 9 -15 9 -8 0 -15
-4 -15 -9z"/>
</g>
</svg>
